<svg width="48" height="48" viewBox="0 0 48 48" fill="none" xmlns="http://www.w3.org/2000/svg">
  <defs>
    <linearGradient id="surface" x1="7" y1="5" x2="41" y2="44" gradientUnits="userSpaceOnUse"><stop stop-color="#1D3153"/><stop offset="1" stop-color="#0A1021"/></linearGradient>
    <linearGradient id="stream" x1="14" y1="14" x2="36" y2="35" gradientUnits="userSpaceOnUse"><stop stop-color="#74DDFF"/><stop offset="0.58" stop-color="#7DA2FF"/><stop offset="1" stop-color="#C888FF"/></linearGradient>
  </defs>
  <rect x="2.5" y="2.5" width="43" height="43" rx="14" fill="url(#surface)" stroke="#8DE4FF" stroke-opacity="0.34"/>
  <path d="M24 9.5C28.2 12.5 32.3 13.7 36.5 14.5V23.3C36.5 31 31.9 36.2 24 39C16.1 36.2 11.5 31 11.5 23.3V14.5C15.7 13.7 19.8 12.5 24 9.5Z" stroke="url(#stream)" stroke-width="2.2" stroke-linejoin="round"/>
  <path d="M15.5 20.2C19.2 18.4 22.8 18.6 26.3 20.2C29.5 21.7 32 21.6 34.5 20.4" stroke="url(#stream)" stroke-width="2.2" stroke-linecap="round"/>
  <path d="M15.5 25.5C19 23.9 22.3 24 25.5 25.5C28.7 27 31.5 27 34.5 25.4" stroke="url(#stream)" stroke-width="2.2" stroke-linecap="round" opacity="0.82"/>
  <path d="M18.2 30.4C20.3 29.6 22.2 29.7 24.1 30.5C26.1 31.4 27.9 31.4 29.8 30.5" stroke="url(#stream)" stroke-width="2.2" stroke-linecap="round" opacity="0.64"/>
</svg>
